mtllib Weapon_Minecraft__220.mtl
o Object_0
usemtl material_0
v 7.9549510755816755 43.75 0
v 7.9549510755816755 -25 0
v 0 43.75 -7.9549510755816755
v 7.9549510755816755 -25 0
v 0 -25 -7.9549510755816755
v 0 43.75 -7.9549510755816755
v -7.9549510755816755 43.75 0
v -7.9549510755816755 -25 0
v 0 43.75 7.9549510755816755
v -7.9549510755816755 -25 0
v 0 -25 7.9549510755816755
v 0 43.75 7.9549510755816755
v -7.9549510755816755 43.75 0
v 0 43.75 7.9549510755816755
v 0 43.75 -7.9549510755816755
v 0 43.75 7.9549510755816755
v 7.9549510755816755 43.75 0
v 0 43.75 -7.9549510755816755
v 0 -25 7.9549510755816755
v -7.9549510755816755 -25 0
v 7.9549510755816755 -25 0
v -7.9549510755816755 -25 0
v 0 -25 -7.9549510755816755
v 7.9549510755816755 -25 0
v 0 43.75 7.9549510755816755
v 0 -25 7.9549510755816755
v 7.9549510755816755 43.75 0
v 0 -25 7.9549510755816755
v 7.9549510755816755 -25 0
v 7.9549510755816755 43.75 0
v 0 43.75 -7.9549510755816755
v 0 -25 -7.9549510755816755
v -7.9549510755816755 43.75 0
v 0 -25 -7.9549510755816755
v -7.9549510755816755 -25 0
v -7.9549510755816755 43.75 0
vt 0.15625 0.171875
vt 0.15625 0.34375
vt 0.1875 0.171875
vt 0.15625 0.34375
vt 0.1875 0.34375
vt 0.1875 0.171875
vt 0.0625 0.1875
vt 0.0625 0.359375
vt 0.09375 0.1875
vt 0.0625 0.359375
vt 0.09375 0.359375
vt 0.09375 0.1875
vt 0.15625 0.21875
vt 0.15625 0.1875
vt 0.125 0.21875
vt 0.15625 0.1875
vt 0.125 0.1875
vt 0.125 0.21875
vt 0.21875 0.171875
vt 0.21875 0.203125
vt 0.1875 0.171875
vt 0.21875 0.203125
vt 0.1875 0.203125
vt 0.1875 0.171875
vt 0.1875 0
vt 0.1875 0.171875
vt 0.21875 0
vt 0.1875 0.171875
vt 0.21875 0.171875
vt 0.21875 0
vt 0.15625 0
vt 0.15625 0.171875
vt 0.1875 0
vt 0.15625 0.171875
vt 0.1875 0.171875
vt 0.1875 0
vn 0.7071067811865476 0 -0.7071067811865476
vn 0.7071067811865476 0 -0.7071067811865476
vn 0.7071067811865476 0 -0.7071067811865476
vn 0.7071067811865476 0 -0.7071067811865476
vn 0.7071067811865476 0 -0.7071067811865476
vn 0.7071067811865476 0 -0.7071067811865476
vn -0.7071067811865476 0 0.7071067811865476
vn -0.7071067811865476 0 0.7071067811865476
vn -0.7071067811865476 0 0.7071067811865476
vn -0.7071067811865476 0 0.7071067811865476
vn -0.7071067811865476 0 0.7071067811865476
vn -0.7071067811865476 0 0.7071067811865476
vn 0 1 0
vn 0 1 0
vn 0 1 0
vn 0 1 0
vn 0 1 0
vn 0 1 0
vn 0 -1 0
vn 0 -1 0
vn 0 -1 0
vn 0 -1 0
vn 0 -1 0
vn 0 -1 0
vn 0.7071067811865476 0 0.7071067811865476
vn 0.7071067811865476 0 0.7071067811865476
vn 0.7071067811865476 0 0.7071067811865476
vn 0.7071067811865476 0 0.7071067811865476
vn 0.7071067811865476 0 0.7071067811865476
vn 0.7071067811865476 0 0.7071067811865476
vn -0.7071067811865476 0 -0.7071067811865476
vn -0.7071067811865476 0 -0.7071067811865476
vn -0.7071067811865476 0 -0.7071067811865476
vn -0.7071067811865476 0 -0.7071067811865476
vn -0.7071067811865476 0 -0.7071067811865476
vn -0.7071067811865476 0 -0.7071067811865476
f 1/1/1 2/2/2 3/3/3
f 4/4/4 5/5/5 6/6/6
f 7/7/7 8/8/8 9/9/9
f 10/10/10 11/11/11 12/12/12
f 13/13/13 14/14/14 15/15/15
f 16/16/16 17/17/17 18/18/18
f 19/19/19 20/20/20 21/21/21
f 22/22/22 23/23/23 24/24/24
f 25/25/25 26/26/26 27/27/27
f 28/28/28 29/29/29 30/30/30
f 31/31/31 32/32/32 33/33/33
f 34/34/34 35/35/35 36/36/36
o Object_1
usemtl material_0
v 18.75 48.124999925494194 18.75
v 18.75 43.75 18.75
v 18.75 48.124999925494194 -18.75
v 18.75 43.75 18.75
v 18.75 43.75 -18.75
v 18.75 48.124999925494194 -18.75
v -18.75 48.124999925494194 -18.75
v -18.75 43.75 -18.75
v -18.75 48.124999925494194 18.75
v -18.75 43.75 -18.75
v -18.75 43.75 18.75
v -18.75 48.124999925494194 18.75
v -18.75 48.124999925494194 -18.75
v -18.75 48.124999925494194 18.75
v 18.75 48.124999925494194 -18.75
v -18.75 48.124999925494194 18.75
v 18.75 48.124999925494194 18.75
v 18.75 48.124999925494194 -18.75
v -18.75 43.75 18.75
v -18.75 43.75 -18.75
v 18.75 43.75 18.75
v -18.75 43.75 -18.75
v 18.75 43.75 -18.75
v 18.75 43.75 18.75
v -18.75 48.124999925494194 18.75
v -18.75 43.75 18.75
v 18.75 48.124999925494194 18.75
v -18.75 43.75 18.75
v 18.75 43.75 18.75
v 18.75 48.124999925494194 18.75
v 18.75 48.124999925494194 -18.75
v 18.75 43.75 -18.75
v -18.75 48.124999925494194 -18.75
v 18.75 43.75 -18.75
v -18.75 43.75 -18.75
v -18.75 48.124999925494194 -18.75
vt 0.21875 0
vt 0.21875 0.0078125
vt 0.3125 0
vt 0.21875 0.0078125
vt 0.3125 0.0078125
vt 0.3125 0
vt 0.21875 0.03125
vt 0.21875 0.0390625
vt 0.3125 0.03125
vt 0.21875 0.0390625
vt 0.3125 0.0390625
vt 0.3125 0.03125
vt 0.15625 0.09375
vt 0.15625 0
vt 0.0625 0.09375
vt 0.15625 0
vt 0.0625 0
vt 0.0625 0.09375
vt 0.15625 0.09375
vt 0.15625 0.1875
vt 0.0625 0.09375
vt 0.15625 0.1875
vt 0.0625 0.1875
vt 0.0625 0.09375
vt 0.21875 0.015625
vt 0.21875 0.0234375
vt 0.3125 0.015625
vt 0.21875 0.0234375
vt 0.3125 0.0234375
vt 0.3125 0.015625
vt 0.1875 0.203125
vt 0.1875 0.2109375
vt 0.28125 0.203125
vt 0.1875 0.2109375
vt 0.28125 0.2109375
vt 0.28125 0.203125
vn 1 0 0
vn 1 0 0
vn 1 0 0
vn 1 0 0
vn 1 0 0
vn 1 0 0
vn -1 0 0
vn -1 0 0
vn -1 0 0
vn -1 0 0
vn -1 0 0
vn -1 0 0
vn 0 1 0
vn 0 1 0
vn 0 1 0
vn 0 1 0
vn 0 1 0
vn 0 1 0
vn 0 -1 0
vn 0 -1 0
vn 0 -1 0
vn 0 -1 0
vn 0 -1 0
vn 0 -1 0
vn 0 0 1
vn 0 0 1
vn 0 0 1
vn 0 0 1
vn 0 0 1
vn 0 0 1
vn 0 0 -1
vn 0 0 -1
vn 0 0 -1
vn 0 0 -1
vn 0 0 -1
vn 0 0 -1
f 37/37/37 38/38/38 39/39/39
f 40/40/40 41/41/41 42/42/42
f 43/43/43 44/44/44 45/45/45
f 46/46/46 47/47/47 48/48/48
f 49/49/49 50/50/50 51/51/51
f 52/52/52 53/53/53 54/54/54
f 55/55/55 56/56/56 57/57/57
f 58/58/58 59/59/59 60/60/60
f 61/61/61 62/62/62 63/63/63
f 64/64/64 65/65/65 66/66/66
f 67/67/67 68/68/68 69/69/69
f 70/70/70 71/71/71 72/72/72
o Object_2
usemtl material_0
v 6.25 237.5 1.2500000186264515
v 6.25 43.75 1.2500000186264515
v 6.25 237.5 -0.6250000093132257
v 6.25 43.75 1.2500000186264515
v 6.25 43.75 -0.6250000093132257
v 6.25 237.5 -0.6250000093132257
v -6.25 237.5 -0.6250000093132257
v -6.25 43.75 -0.6250000093132257
v -6.25 237.5 1.2500000186264515
v -6.25 43.75 -0.6250000093132257
v -6.25 43.75 1.2500000186264515
v -6.25 237.5 1.2500000186264515
v -6.25 237.5 -0.6250000093132257
v -6.25 237.5 1.2500000186264515
v 6.25 237.5 -0.6250000093132257
v -6.25 237.5 1.2500000186264515
v 6.25 237.5 1.2500000186264515
v 6.25 237.5 -0.6250000093132257
v -6.25 43.75 1.2500000186264515
v -6.25 43.75 -0.6250000093132257
v 6.25 43.75 1.2500000186264515
v -6.25 43.75 -0.6250000093132257
v 6.25 43.75 -0.6250000093132257
v 6.25 43.75 1.2500000186264515
v -6.25 237.5 1.2500000186264515
v -6.25 43.75 1.2500000186264515
v 6.25 237.5 1.2500000186264515
v -6.25 43.75 1.2500000186264515
v 6.25 43.75 1.2500000186264515
v 6.25 237.5 1.2500000186264515
v 6.25 237.5 -0.6250000093132257
v 6.25 43.75 -0.6250000093132257
v -6.25 237.5 -0.6250000093132257
v 6.25 43.75 -0.6250000093132257
v -6.25 43.75 -0.6250000093132257
v -6.25 237.5 -0.6250000093132257
vt 0.09375 0.1875
vt 0.09375 0.671875
vt 0.1015625 0.1875
vt 0.09375 0.671875
vt 0.1015625 0.671875
vt 0.1015625 0.1875
vt 0.109375 0.1875
vt 0.109375 0.671875
vt 0.1171875 0.1875
vt 0.109375 0.671875
vt 0.1171875 0.671875
vt 0.1171875 0.1875
vt 0.25 0.1171875
vt 0.25 0.109375
vt 0.21875 0.1171875
vt 0.25 0.109375
vt 0.21875 0.109375
vt 0.21875 0.1171875
vt 0.15625 0.21875
vt 0.15625 0.2265625
vt 0.125 0.21875
vt 0.15625 0.2265625
vt 0.125 0.2265625
vt 0.125 0.21875
vt 0.03125 0
vt 0.03125 0.484375
vt 0.0625 0
vt 0.03125 0.484375
vt 0.0625 0.484375
vt 0.0625 0
vt 0 0
vt 0 0.484375
vt 0.03125 0
vt 0 0.484375
vt 0.03125 0.484375
vt 0.03125 0
vn 1 0 0
vn 1 0 0
vn 1 0 0
vn 1 0 0
vn 1 0 0
vn 1 0 0
vn -1 0 0
vn -1 0 0
vn -1 0 0
vn -1 0 0
vn -1 0 0
vn -1 0 0
vn 0 1 0
vn 0 1 0
vn 0 1 0
vn 0 1 0
vn 0 1 0
vn 0 1 0
vn 0 -1 0
vn 0 -1 0
vn 0 -1 0
vn 0 -1 0
vn 0 -1 0
vn 0 -1 0
vn 0 0 1
vn 0 0 1
vn 0 0 1
vn 0 0 1
vn 0 0 1
vn 0 0 1
vn 0 0 -1
vn 0 0 -1
vn 0 0 -1
vn 0 0 -1
vn 0 0 -1
vn 0 0 -1
f 73/73/73 74/74/74 75/75/75
f 76/76/76 77/77/77 78/78/78
f 79/79/79 80/80/80 81/81/81
f 82/82/82 83/83/83 84/84/84
f 85/85/85 86/86/86 87/87/87
f 88/88/88 89/89/89 90/90/90
f 91/91/91 92/92/92 93/93/93
f 94/94/94 95/95/95 96/96/96
f 97/97/97 98/98/98 99/99/99
f 100/100/100 101/101/101 102/102/102
f 103/103/103 104/104/104 105/105/105
f 106/106/106 107/107/107 108/108/108
o Object_3
usemtl material_0
v 4.374999925494194 243.75 1.2500000186264515
v 4.374999925494194 237.5 1.2500000186264515
v 4.374999925494194 243.75 -0.6250000093132257
v 4.374999925494194 237.5 1.2500000186264515
v 4.374999925494194 237.5 -0.6250000093132257
v 4.374999925494194 243.75 -0.6250000093132257
v -6.25 243.75 -0.6250000093132257
v -6.25 237.5 -0.6250000093132257
v -6.25 243.75 1.2500000186264515
v -6.25 237.5 -0.6250000093132257
v -6.25 237.5 1.2500000186264515
v -6.25 243.75 1.2500000186264515
v -6.25 243.75 -0.6250000093132257
v -6.25 243.75 1.2500000186264515
v 4.374999925494194 243.75 -0.6250000093132257
v -6.25 243.75 1.2500000186264515
v 4.374999925494194 243.75 1.2500000186264515
v 4.374999925494194 243.75 -0.6250000093132257
v -6.25 237.5 1.2500000186264515
v -6.25 237.5 -0.6250000093132257
v 4.374999925494194 237.5 1.2500000186264515
v -6.25 237.5 -0.6250000093132257
v 4.374999925494194 237.5 -0.6250000093132257
v 4.374999925494194 237.5 1.2500000186264515
v -6.25 243.75 1.2500000186264515
v -6.25 237.5 1.2500000186264515
v 4.374999925494194 243.75 1.2500000186264515
v -6.25 237.5 1.2500000186264515
v 4.374999925494194 237.5 1.2500000186264515
v 4.374999925494194 243.75 1.2500000186264515
v 4.374999925494194 243.75 -0.6250000093132257
v 4.374999925494194 237.5 -0.6250000093132257
v -6.25 243.75 -0.6250000093132257
v 4.374999925494194 237.5 -0.6250000093132257
v -6.25 237.5 -0.6250000093132257
v -6.25 243.75 -0.6250000093132257
vt 0.1875 0.234375
vt 0.1875 0.25
vt 0.1953125 0.234375
vt 0.1875 0.25
vt 0.1953125 0.25
vt 0.1953125 0.234375
vt 0.234375 0.1875
vt 0.234375 0.203125
vt 0.2421875 0.1875
vt 0.234375 0.203125
vt 0.2421875 0.203125
vt 0.2421875 0.1875
vt 0.2421875 0.1640625
vt 0.2421875 0.15625
vt 0.21875 0.1640625
vt 0.2421875 0.15625
vt 0.21875 0.15625
vt 0.21875 0.1640625
vt 0.2421875 0.171875
vt 0.2421875 0.1796875
vt 0.21875 0.171875
vt 0.2421875 0.1796875
vt 0.21875 0.1796875
vt 0.21875 0.171875
vt 0.21875 0.09375
vt 0.21875 0.109375
vt 0.2421875 0.09375
vt 0.21875 0.109375
vt 0.2421875 0.109375
vt 0.2421875 0.09375
vt 0.21875 0.078125
vt 0.21875 0.09375
vt 0.2421875 0.078125
vt 0.21875 0.09375
vt 0.2421875 0.09375
vt 0.2421875 0.078125
vn 1 0 0
vn 1 0 0
vn 1 0 0
vn 1 0 0
vn 1 0 0
vn 1 0 0
vn -1 0 0
vn -1 0 0
vn -1 0 0
vn -1 0 0
vn -1 0 0
vn -1 0 0
vn 0 1 0
vn 0 1 0
vn 0 1 0
vn 0 1 0
vn 0 1 0
vn 0 1 0
vn 0 -1 0
vn 0 -1 0
vn 0 -1 0
vn 0 -1 0
vn 0 -1 0
vn 0 -1 0
vn 0 0 1
vn 0 0 1
vn 0 0 1
vn 0 0 1
vn 0 0 1
vn 0 0 1
vn 0 0 -1
vn 0 0 -1
vn 0 0 -1
vn 0 0 -1
vn 0 0 -1
vn 0 0 -1
f 109/109/109 110/110/110 111/111/111
f 112/112/112 113/113/113 114/114/114
f 115/115/115 116/116/116 117/117/117
f 118/118/118 119/119/119 120/120/120
f 121/121/121 122/122/122 123/123/123
f 124/124/124 125/125/125 126/126/126
f 127/127/127 128/128/128 129/129/129
f 130/130/130 131/131/131 132/132/132
f 133/133/133 134/134/134 135/135/135
f 136/136/136 137/137/137 138/138/138
f 139/139/139 140/140/140 141/141/141
f 142/142/142 143/143/143 144/144/144
o Object_4
usemtl material_0
v 2.500000037252903 250 1.2500000186264515
v 2.500000037252903 243.75 1.2500000186264515
v 2.500000037252903 250 -0.6250000093132257
v 2.500000037252903 243.75 1.2500000186264515
v 2.500000037252903 243.75 -0.6250000093132257
v 2.500000037252903 250 -0.6250000093132257
v -6.25 250 -0.6250000093132257
v -6.25 243.75 -0.6250000093132257
v -6.25 250 1.2500000186264515
v -6.25 243.75 -0.6250000093132257
v -6.25 243.75 1.2500000186264515
v -6.25 250 1.2500000186264515
v -6.25 250 -0.6250000093132257
v -6.25 250 1.2500000186264515
v 2.500000037252903 250 -0.6250000093132257
v -6.25 250 1.2500000186264515
v 2.500000037252903 250 1.2500000186264515
v 2.500000037252903 250 -0.6250000093132257
v -6.25 243.75 1.2500000186264515
v -6.25 243.75 -0.6250000093132257
v 2.500000037252903 243.75 1.2500000186264515
v -6.25 243.75 -0.6250000093132257
v 2.500000037252903 243.75 -0.6250000093132257
v 2.500000037252903 243.75 1.2500000186264515
v -6.25 250 1.2500000186264515
v -6.25 243.75 1.2500000186264515
v 2.500000037252903 250 1.2500000186264515
v -6.25 243.75 1.2500000186264515
v 2.500000037252903 243.75 1.2500000186264515
v 2.500000037252903 250 1.2500000186264515
v 2.500000037252903 250 -0.6250000093132257
v 2.500000037252903 243.75 -0.6250000093132257
v -6.25 250 -0.6250000093132257
v 2.500000037252903 243.75 -0.6250000093132257
v -6.25 243.75 -0.6250000093132257
v -6.25 250 -0.6250000093132257
vt 0.125 0.234375
vt 0.125 0.25
vt 0.1328125 0.234375
vt 0.125 0.25
vt 0.1328125 0.25
vt 0.1328125 0.234375
vt 0.140625 0.234375
vt 0.140625 0.25
vt 0.1484375 0.234375
vt 0.140625 0.25
vt 0.1484375 0.25
vt 0.1484375 0.234375
vt 0.2421875 0.1328125
vt 0.2421875 0.125
vt 0.21875 0.1328125
vt 0.2421875 0.125
vt 0.21875 0.125
vt 0.21875 0.1328125
vt 0.2421875 0.140625
vt 0.2421875 0.1484375
vt 0.21875 0.140625
vt 0.2421875 0.1484375
vt 0.21875 0.1484375
vt 0.21875 0.140625
vt 0.21875 0.0625
vt 0.21875 0.078125
vt 0.2421875 0.0625
vt 0.21875 0.078125
vt 0.2421875 0.078125
vt 0.2421875 0.0625
vt 0.21875 0.046875
vt 0.21875 0.0625
vt 0.2421875 0.046875
vt 0.21875 0.0625
vt 0.2421875 0.0625
vt 0.2421875 0.046875
vn 1 0 0
vn 1 0 0
vn 1 0 0
vn 1 0 0
vn 1 0 0
vn 1 0 0
vn -1 0 0
vn -1 0 0
vn -1 0 0
vn -1 0 0
vn -1 0 0
vn -1 0 0
vn 0 1 0
vn 0 1 0
vn 0 1 0
vn 0 1 0
vn 0 1 0
vn 0 1 0
vn 0 -1 0
vn 0 -1 0
vn 0 -1 0
vn 0 -1 0
vn 0 -1 0
vn 0 -1 0
vn 0 0 1
vn 0 0 1
vn 0 0 1
vn 0 0 1
vn 0 0 1
vn 0 0 1
vn 0 0 -1
vn 0 0 -1
vn 0 0 -1
vn 0 0 -1
vn 0 0 -1
vn 0 0 -1
f 145/145/145 146/146/146 147/147/147
f 148/148/148 149/149/149 150/150/150
f 151/151/151 152/152/152 153/153/153
f 154/154/154 155/155/155 156/156/156
f 157/157/157 158/158/158 159/159/159
f 160/160/160 161/161/161 162/162/162
f 163/163/163 164/164/164 165/165/165
f 166/166/166 167/167/167 168/168/168
f 169/169/169 170/170/170 171/171/171
f 172/172/172 173/173/173 174/174/174
f 175/175/175 176/176/176 177/177/177
f 178/178/178 179/179/179 180/180/180
o Object_5
usemtl material_0
v 0.6250000093132257 254.3749999254942 1.2500000186264515
v 0.6250000093132257 250 1.2500000186264515
v 0.6250000093132257 254.3749999254942 -0.6250000093132257
v 0.6250000093132257 250 1.2500000186264515
v 0.6250000093132257 250 -0.6250000093132257
v 0.6250000093132257 254.3749999254942 -0.6250000093132257
v -6.25 254.3749999254942 -0.6250000093132257
v -6.25 250 -0.6250000093132257
v -6.25 254.3749999254942 1.2500000186264515
v -6.25 250 -0.6250000093132257
v -6.25 250 1.2500000186264515
v -6.25 254.3749999254942 1.2500000186264515
v -6.25 254.3749999254942 -0.6250000093132257
v -6.25 254.3749999254942 1.2500000186264515
v 0.6250000093132257 254.3749999254942 -0.6250000093132257
v -6.25 254.3749999254942 1.2500000186264515
v 0.6250000093132257 254.3749999254942 1.2500000186264515
v 0.6250000093132257 254.3749999254942 -0.6250000093132257
v -6.25 250 1.2500000186264515
v -6.25 250 -0.6250000093132257
v 0.6250000093132257 250 1.2500000186264515
v -6.25 250 -0.6250000093132257
v 0.6250000093132257 250 -0.6250000093132257
v 0.6250000093132257 250 1.2500000186264515
v -6.25 254.3749999254942 1.2500000186264515
v -6.25 250 1.2500000186264515
v 0.6250000093132257 254.3749999254942 1.2500000186264515
v -6.25 250 1.2500000186264515
v 0.6250000093132257 250 1.2500000186264515
v 0.6250000093132257 254.3749999254942 1.2500000186264515
v 0.6250000093132257 254.3749999254942 -0.6250000093132257
v 0.6250000093132257 250 -0.6250000093132257
v -6.25 254.3749999254942 -0.6250000093132257
v 0.6250000093132257 250 -0.6250000093132257
v -6.25 250 -0.6250000093132257
v -6.25 254.3749999254942 -0.6250000093132257
vt 0.203125 0.234375
vt 0.203125 0.2421875
vt 0.2109375 0.234375
vt 0.203125 0.2421875
vt 0.2109375 0.2421875
vt 0.2109375 0.234375
vt 0.21875 0.234375
vt 0.21875 0.2421875
vt 0.2265625 0.234375
vt 0.21875 0.2421875
vt 0.2265625 0.2421875
vt 0.2265625 0.234375
vt 0.21875 0.2265625
vt 0.21875 0.21875
vt 0.203125 0.2265625
vt 0.21875 0.21875
vt 0.203125 0.21875
vt 0.203125 0.2265625
vt 0.234375 0.21875
vt 0.234375 0.2265625
vt 0.21875 0.21875
vt 0.234375 0.2265625
vt 0.21875 0.2265625
vt 0.21875 0.21875
vt 0.21875 0.1875
vt 0.21875 0.1953125
vt 0.234375 0.1875
vt 0.21875 0.1953125
vt 0.234375 0.1953125
vt 0.234375 0.1875
vt 0.1875 0.21875
vt 0.1875 0.2265625
vt 0.203125 0.21875
vt 0.1875 0.2265625
vt 0.203125 0.2265625
vt 0.203125 0.21875
vn 1 0 0
vn 1 0 0
vn 1 0 0
vn 1 0 0
vn 1 0 0
vn 1 0 0
vn -1 0 0
vn -1 0 0
vn -1 0 0
vn -1 0 0
vn -1 0 0
vn -1 0 0
vn 0 1 0
vn 0 1 0
vn 0 1 0
vn 0 1 0
vn 0 1 0
vn 0 1 0
vn 0 -1 0
vn 0 -1 0
vn 0 -1 0
vn 0 -1 0
vn 0 -1 0
vn 0 -1 0
vn 0 0 1
vn 0 0 1
vn 0 0 1
vn 0 0 1
vn 0 0 1
vn 0 0 1
vn 0 0 -1
vn 0 0 -1
vn 0 0 -1
vn 0 0 -1
vn 0 0 -1
vn 0 0 -1
f 181/181/181 182/182/182 183/183/183
f 184/184/184 185/185/185 186/186/186
f 187/187/187 188/188/188 189/189/189
f 190/190/190 191/191/191 192/192/192
f 193/193/193 194/194/194 195/195/195
f 196/196/196 197/197/197 198/198/198
f 199/199/199 200/200/200 201/201/201
f 202/202/202 203/203/203 204/204/204
f 205/205/205 206/206/206 207/207/207
f 208/208/208 209/209/209 210/210/210
f 211/211/211 212/212/212 213/213/213
f 214/214/214 215/215/215 216/216/216
