# material
mtllib machine.mtl
usemtl palette

# normals
vn -1 0 0
vn 1 0 0
vn 0 0 1
vn 0 0 -1
vn 0 -1 0
vn 0 1 0

# texcoords
vt 0.177734 0.5
vt 0.583984 0.5
vt 0.720703 0.5
vt 0.759766 0.5
vt 0.841797 0.5
vt 0.861328 0.5
vt 0.919922 0.5
vt 0.923828 0.5
vt 0.947266 0.5
vt 0.958984 0.5
vt 0.962891 0.5
vt 0.990234 0.5

# verts
v -1.3 2.6 0.3
v -1.3 2.6 -0.3
v -1.3 2.8 0.3
v -1.3 2.8 -0.3
v -1.3 2.9 0.3
v -1.3 2.9 -0.3
v -1.2 2.3 0.3
v -1.2 2.3 -0.3
v -1.2 2.6 0.3
v -1.2 2.6 -0.3
v -1.1 2.1 0.3
v -1.1 2.1 -0.3
v -1.1 2.3 0.3
v -1.1 2.3 -0.3
v -1 1.7 0.5
v -1 1.7 -0.5
v -1 1.8 0.4
v -1 1.8 -0.4
v -1 1.9 0.3
v -1 1.9 -0.3
v -1 2.1 0.5
v -1 2.1 0.4
v -1 2.1 0.3
v -1 2.1 -0.3
v -1 2.1 -0.4
v -1 2.1 -0.5
v -1 2.2 0.6
v -1 2.2 0.5
v -1 2.2 -0.5
v -1 2.2 -0.6
v -1 2.3 0.5
v -1 2.3 0.3
v -1 2.3 -0.3
v -1 2.3 -0.5
v -1 2.4 0.6
v -1 2.4 0.5
v -1 2.4 -0.5
v -1 2.4 -0.6
v -1 2.8 0.6
v -1 2.8 0.5
v -1 2.8 0.4
v -1 2.8 0.3
v -1 2.8 -0.3
v -1 2.8 -0.4
v -1 2.8 -0.5
v -1 2.8 -0.6
v -1 2.9 0.6
v -1 2.9 0.5
v -1 2.9 0.4
v -1 2.9 0.3
v -1 2.9 -0.3
v -1 2.9 -0.4
v -1 2.9 -0.5
v -1 2.9 -0.6
v 0.5 2.7 0.4
v 0.5 2.7 0.3
v 0.5 2.7 0.1
v 0.5 2.7 -0.1
v 0.5 2.7 -0.3
v 0.5 2.8 0.4
v 0.5 2.8 -0.3
v 0.5 2.9 0.4
v 0.5 2.9 -0.3
v -0.8 2.7 0.4
v -0.8 2.7 0.3
v -0.8 2.7 0.1
v -0.8 2.7 -0.1
v -0.8 2.7 -0.3
v -0.8 2.8 0.4
v -0.8 2.8 -0.3
v -0.8 2.9 0.4
v -0.8 2.9 -0.3
v 1.4 1.7 0.5
v 1.4 1.7 -0.5
v 1.4 1.8 0.4
v 1.4 1.8 -0.4
v 1.4 1.9 0.3
v 1.4 1.9 -0.3
v 1.4 2.1 0.5
v 1.4 2.1 0.4
v 1.4 2.1 0.3
v 1.4 2.1 -0.3
v 1.4 2.1 -0.4
v 1.4 2.1 -0.5
v 1.4 2.2 0.5
v 1.4 2.2 0.3
v 1.4 2.2 -0.3
v 1.4 2.2 -0.5
v 1.5 2.2 0.6
v 1.5 2.2 -0.6
v 1.5 2.3 0.5
v 1.5 2.3 -0.5
v 1.5 2.4 0.6
v 1.5 2.4 0.5
v 1.5 2.4 0.4
v 1.5 2.4 -0.4
v 1.5 2.4 -0.5
v 1.5 2.4 -0.6
v 1.5 2.7 0.4
v 1.5 2.7 -0.4
v 1.5 2.8 0.6
v 1.5 2.8 0.5
v 1.5 2.8 0.4
v 1.5 2.8 -0.4
v 1.5 2.8 -0.5
v 1.5 2.8 -0.6
v 1.5 2.9 0.6
v 1.5 2.9 0.5
v 1.5 2.9 0.4
v 1.5 2.9 -0.4
v 1.5 2.9 -0.5
v 1.5 2.9 -0.6
v -1 2.2 0.6
v -1 2.4 0.6
v -1 2.8 0.6
v -1 2.9 0.6
v -0.9 2.3 0.6
v -0.9 2.4 0.6
v -0.9 2.7 0.6
v -0.9 2.8 0.6
v -0.7 2.4 0.6
v -0.7 2.7 0.6
v -0.6 2.4 0.6
v -0.6 2.6 0.6
v -0.6 2.7 0.6
v -0.5 2.4 0.6
v -0.5 2.6 0.6
v -0.5 2.7 0.6
v -0.4 2.4 0.6
v -0.4 2.6 0.6
v -0.4 2.7 0.6
v -0.3 2.4 0.6
v -0.3 2.6 0.6
v -0.3 2.7 0.6
v -0.2 2.4 0.6
v -0.2 2.6 0.6
v -0.2 2.7 0.6
v -0.0999999 2.4 0.6
v -0.0999999 2.6 0.6
v -0.0999999 2.7 0.6
v 0 2.4 0.6
v 0 2.7 0.6
v 0.1 2.5 0.6
v 0.1 2.7 0.6
v 0.9 2.5 0.6
v 0.9 2.7 0.6
v 1 2.4 0.6
v 1 2.7 0.6
v 1.1 2.4 0.6
v 1.1 2.7 0.6
v 1.4 2.3 0.6
v 1.4 2.4 0.6
v 1.4 2.7 0.6
v 1.4 2.8 0.6
v 1.4 2.9 0.6
v 1.5 2.2 0.6
v 1.5 2.4 0.6
v 1.5 2.8 0.6
v 1.5 2.9 0.6
v -1 1.7 0.5
v -1 2.1 0.5
v -1 2.2 0.5
v -0.9 1.8 0.5
v -0.9 2.1 0.5
v -0.8 1.9 0.5
v -0.8 2.1 0.5
v -0.8 2.2 0.5
v -0.6 1.9 0.5
v -0.6 2.1 0.5
v -0.6 2.2 0.5
v -0.5 1.9 0.5
v -0.5 2 0.5
v -0.5 2.1 0.5
v -0.5 2.2 0.5
v -0.4 1.9 0.5
v -0.4 2 0.5
v -0.4 2.1 0.5
v -0.4 2.2 0.5
v -0.3 2 0.5
v -0.3 2.1 0.5
v -0.2 1.9 0.5
v -0.2 2.1 0.5
v -0.2 2.2 0.5
v 0.4 2 0.5
v 0.4 2.1 0.5
v 0.5 2.1 0.5
v 0.5 2.2 0.5
v 0.7 2.1 0.5
v 0.7 2.2 0.5
v 0.9 2.1 0.5
v 0.9 2.2 0.5
v 1 2 0.5
v 1 2.1 0.5
v 1.2 1.9 0.5
v 1.2 2.1 0.5
v 1.2 2.2 0.5
v 1.3 1.8 0.5
v 1.3 2.1 0.5
v 1.4 1.7 0.5
v 1.4 2.1 0.5
v 1.4 2.2 0.5
v -1.3 2.6 0.3
v -1.3 2.8 0.3
v -1.3 2.9 0.3
v -1.2 2.3 0.3
v -1.2 2.6 0.3
v -1.1 2.1 0.3
v -1.1 2.3 0.3
v -1 2.1 0.3
v -1 2.3 0.3
v -1 2.8 0.3
v -1 2.9 0.3
v -0.8 2.7 -0.3
v -0.8 2.8 -0.3
v -0.8 2.9 -0.3
v 0.5 2.7 -0.3
v 0.5 2.8 -0.3
v 0.5 2.9 -0.3
v -0.8 2.7 0.4
v -0.8 2.8 0.4
v -0.8 2.9 0.4
v 0.5 2.7 0.4
v 0.5 2.8 0.4
v 0.5 2.9 0.4
v -1.3 2.6 -0.3
v -1.3 2.8 -0.3
v -1.3 2.9 -0.3
v -1.2 2.3 -0.3
v -1.2 2.6 -0.3
v -1.1 2.1 -0.3
v -1.1 2.3 -0.3
v -1 2.1 -0.3
v -1 2.3 -0.3
v -1 2.8 -0.3
v -1 2.9 -0.3
v -1 1.7 -0.5
v -1 2.1 -0.5
v -1 2.2 -0.5
v -0.9 1.8 -0.5
v -0.9 2.1 -0.5
v -0.8 1.9 -0.5
v -0.8 2.1 -0.5
v -0.8 2.2 -0.5
v -0.6 1.9 -0.5
v -0.6 2.1 -0.5
v -0.6 2.2 -0.5
v -0.5 1.9 -0.5
v -0.5 2 -0.5
v -0.5 2.1 -0.5
v -0.5 2.2 -0.5
v -0.4 1.9 -0.5
v -0.4 2 -0.5
v -0.4 2.1 -0.5
v -0.4 2.2 -0.5
v -0.3 2 -0.5
v -0.3 2.1 -0.5
v -0.2 1.9 -0.5
v -0.2 2.1 -0.5
v -0.2 2.2 -0.5
v 0.4 2 -0.5
v 0.4 2.1 -0.5
v 0.5 2.1 -0.5
v 0.5 2.2 -0.5
v 0.7 2.1 -0.5
v 0.7 2.2 -0.5
v 0.9 2.1 -0.5
v 0.9 2.2 -0.5
v 1 2 -0.5
v 1 2.1 -0.5
v 1.2 1.9 -0.5
v 1.2 2.1 -0.5
v 1.2 2.2 -0.5
v 1.3 1.8 -0.5
v 1.3 2.1 -0.5
v 1.4 1.7 -0.5
v 1.4 2.1 -0.5
v 1.4 2.2 -0.5
v -1 2.2 -0.6
v -1 2.4 -0.6
v -1 2.8 -0.6
v -1 2.9 -0.6
v -0.9 2.3 -0.6
v -0.9 2.4 -0.6
v -0.9 2.7 -0.6
v -0.9 2.8 -0.6
v -0.7 2.4 -0.6
v -0.7 2.7 -0.6
v -0.6 2.4 -0.6
v -0.6 2.6 -0.6
v -0.6 2.7 -0.6
v -0.5 2.4 -0.6
v -0.5 2.6 -0.6
v -0.5 2.7 -0.6
v -0.4 2.4 -0.6
v -0.4 2.6 -0.6
v -0.4 2.7 -0.6
v -0.3 2.4 -0.6
v -0.3 2.6 -0.6
v -0.3 2.7 -0.6
v -0.2 2.4 -0.6
v -0.2 2.6 -0.6
v -0.2 2.7 -0.6
v -0.0999999 2.4 -0.6
v -0.0999999 2.6 -0.6
v -0.0999999 2.7 -0.6
v 0 2.4 -0.6
v 0 2.7 -0.6
v 0.1 2.5 -0.6
v 0.1 2.7 -0.6
v 0.9 2.5 -0.6
v 0.9 2.7 -0.6
v 1 2.4 -0.6
v 1 2.7 -0.6
v 1.1 2.4 -0.6
v 1.1 2.7 -0.6
v 1.4 2.3 -0.6
v 1.4 2.4 -0.6
v 1.4 2.7 -0.6
v 1.4 2.8 -0.6
v 1.4 2.9 -0.6
v 1.5 2.2 -0.6
v 1.5 2.4 -0.6
v 1.5 2.8 -0.6
v 1.5 2.9 -0.6
v -1 1.7 0.5
v 1.4 1.7 0.5
v -1 1.7 -0.5
v 1.4 1.7 -0.5
v -1.1 2.1 0.3
v -1 2.1 0.3
v -1.1 2.1 -0.3
v -1 2.1 -0.3
v -1 2.2 0.6
v 1.5 2.2 0.6
v -1 2.2 0.5
v -0.8 2.2 0.5
v -0.6 2.2 0.5
v -0.5 2.2 0.5
v -0.4 2.2 0.5
v -0.2 2.2 0.5
v 0.5 2.2 0.5
v 0.7 2.2 0.5
v 0.9 2.2 0.5
v 1.2 2.2 0.5
v 1.4 2.2 0.5
v 1.4 2.2 0.3
v 1.4 2.2 -0.3
v -1 2.2 -0.5
v -0.8 2.2 -0.5
v -0.6 2.2 -0.5
v -0.5 2.2 -0.5
v -0.4 2.2 -0.5
v -0.2 2.2 -0.5
v 0.5 2.2 -0.5
v 0.7 2.2 -0.5
v 0.9 2.2 -0.5
v 1.2 2.2 -0.5
v 1.4 2.2 -0.5
v -1 2.2 -0.6
v 1.5 2.2 -0.6
v -1.2 2.3 0.3
v -1.1 2.3 0.3
v -1.2 2.3 -0.3
v -1.1 2.3 -0.3
v -1.3 2.6 0.3
v -1.2 2.6 0.3
v -1.3 2.6 -0.3
v -1.2 2.6 -0.3
v -0.8 2.7 0.4
v 0.5 2.7 0.4
v -0.8 2.7 0.3
v 0.5 2.7 0.3
v -0.8 2.7 0.1
v 0.5 2.7 0.1
v -0.8 2.7 -0.1
v 0.5 2.7 -0.1
v -0.8 2.7 -0.3
v 0.5 2.7 -0.3
v -1 2.9 0.6
v 1.4 2.9 0.6
v 1.5 2.9 0.6
v -1 2.9 0.5
v 1.4 2.9 0.5
v 1.5 2.9 0.5
v -1 2.9 0.4
v -0.9 2.9 0.4
v -0.8 2.9 0.4
v 0.5 2.9 0.4
v 0.6 2.9 0.4
v 0.7 2.9 0.4
v 0.8 2.9 0.4
v 1.3 2.9 0.4
v 1.4 2.9 0.4
v 1.5 2.9 0.4
v -1.3 2.9 0.3
v -1 2.9 0.3
v -1.2 2.9 0.2
v -1 2.9 0.2
v -1.2 2.9 0.1
v -1 2.9 0.1
v -1.2 2.9 -0.1
v -1 2.9 -0.1
v -1.2 2.9 -0.2
v -1 2.9 -0.2
v -1.3 2.9 -0.3
v -1 2.9 -0.3
v -0.9 2.9 -0.3
v -0.8 2.9 -0.3
v 0.5 2.9 -0.3
v 0.6 2.9 -0.3
v 0.7 2.9 -0.3
v 0.8 2.9 -0.3
v 1.3 2.9 -0.3
v 1.4 2.9 -0.3
v -1 2.9 -0.4
v -0.9 2.9 -0.4
v -0.8 2.9 -0.4
v 0.5 2.9 -0.4
v 0.6 2.9 -0.4
v 0.7 2.9 -0.4
v 0.8 2.9 -0.4
v 1.3 2.9 -0.4
v 1.4 2.9 -0.4
v 1.5 2.9 -0.4
v -1 2.9 -0.5
v 1.4 2.9 -0.5
v 1.5 2.9 -0.5
v -1 2.9 -0.6
v 1.4 2.9 -0.6
v 1.5 2.9 -0.6

# faces
f 3/6/1 2/6/1 1/6/1
f 4/6/1 2/6/1 3/6/1
f 5/3/1 4/3/1 3/3/1
f 6/3/1 4/3/1 5/3/1
f 9/6/1 8/6/1 7/6/1
f 10/6/1 8/6/1 9/6/1
f 13/6/1 12/6/1 11/6/1
f 14/6/1 12/6/1 13/6/1
f 17/4/1 16/4/1 15/4/1
f 18/4/1 16/4/1 17/4/1
f 19/12/1 18/12/1 17/12/1
f 20/12/1 18/12/1 19/12/1
f 21/4/1 17/4/1 15/4/1
f 22/12/1 19/12/1 17/12/1
f 22/4/1 17/4/1 21/4/1
f 23/6/1 20/6/1 19/6/1
f 23/12/1 19/12/1 22/12/1
f 24/12/1 18/12/1 20/12/1
f 24/6/1 20/6/1 23/6/1
f 25/4/1 16/4/1 18/4/1
f 25/12/1 18/12/1 24/12/1
f 26/4/1 16/4/1 25/4/1
f 28/12/1 23/12/1 22/12/1
f 28/12/1 22/12/1 21/12/1
f 29/12/1 26/12/1 25/12/1
f 29/12/1 25/12/1 24/12/1
f 31/12/1 28/12/1 27/12/1
f 31/12/1 23/12/1 28/12/1
f 32/12/1 23/12/1 31/12/1
f 33/12/1 30/12/1 29/12/1
f 33/12/1 29/12/1 24/12/1
f 34/12/1 30/12/1 33/12/1
f 35/12/1 31/12/1 27/12/1
f 36/6/1 32/6/1 31/6/1
f 36/12/1 31/12/1 35/12/1
f 37/12/1 30/12/1 34/12/1
f 37/6/1 34/6/1 33/6/1
f 38/12/1 30/12/1 37/12/1
f 39/5/1 36/5/1 35/5/1
f 40/6/1 32/6/1 36/6/1
f 40/5/1 36/5/1 39/5/1
f 41/6/1 32/6/1 40/6/1
f 42/6/1 32/6/1 41/6/1
f 43/6/1 37/6/1 33/6/1
f 44/6/1 37/6/1 43/6/1
f 45/5/1 38/5/1 37/5/1
f 45/6/1 37/6/1 44/6/1
f 46/5/1 38/5/1 45/5/1
f 47/3/1 40/3/1 39/3/1
f 48/8/1 41/8/1 40/8/1
f 48/3/1 40/3/1 47/3/1
f 49/3/1 42/3/1 41/3/1
f 49/8/1 41/8/1 48/8/1
f 50/3/1 42/3/1 49/3/1
f 51/3/1 44/3/1 43/3/1
f 52/8/1 45/8/1 44/8/1
f 52/3/1 44/3/1 51/3/1
f 53/3/1 46/3/1 45/3/1
f 53/8/1 45/8/1 52/8/1
f 54/3/1 46/3/1 53/3/1
f 60/12/1 56/12/1 55/12/1
f 60/12/1 59/12/1 58/12/1
f 60/12/1 58/12/1 57/12/1
f 60/12/1 57/12/1 56/12/1
f 61/12/1 59/12/1 60/12/1
f 62/11/1 61/11/1 60/11/1
f 63/11/1 61/11/1 62/11/1
f 64/12/2 65/12/2 69/12/2
f 67/12/2 68/12/2 69/12/2
f 66/12/2 67/12/2 69/12/2
f 65/12/2 66/12/2 69/12/2
f 69/12/2 68/12/2 70/12/2
f 69/11/2 70/11/2 71/11/2
f 71/11/2 70/11/2 72/11/2
f 73/4/2 74/4/2 75/4/2
f 75/4/2 74/4/2 76/4/2
f 75/12/2 76/12/2 77/12/2
f 77/12/2 76/12/2 78/12/2
f 73/4/2 75/4/2 79/4/2
f 75/12/2 77/12/2 80/12/2
f 79/4/2 75/4/2 80/4/2
f 77/6/2 78/6/2 81/6/2
f 80/12/2 77/12/2 81/12/2
f 78/12/2 76/12/2 82/12/2
f 81/6/2 78/6/2 82/6/2
f 76/4/2 74/4/2 83/4/2
f 82/12/2 76/12/2 83/12/2
f 83/4/2 74/4/2 84/4/2
f 80/12/2 81/12/2 85/12/2
f 79/12/2 80/12/2 85/12/2
f 81/5/2 82/5/2 86/5/2
f 85/12/2 81/12/2 86/12/2
f 83/12/2 84/12/2 87/12/2
f 86/5/2 82/5/2 87/5/2
f 82/12/2 83/12/2 87/12/2
f 87/12/2 84/12/2 88/12/2
f 89/12/2 90/12/2 91/12/2
f 91/12/2 90/12/2 92/12/2
f 89/12/2 91/12/2 93/12/2
f 91/6/2 92/6/2 94/6/2
f 93/12/2 91/12/2 94/12/2
f 94/6/2 92/6/2 95/6/2
f 95/6/2 92/6/2 96/6/2
f 92/12/2 90/12/2 97/12/2
f 96/6/2 92/6/2 97/6/2
f 97/12/2 90/12/2 98/12/2
f 95/3/2 96/3/2 99/3/2
f 94/6/2 95/6/2 99/6/2
f 96/6/2 97/6/2 100/6/2
f 99/3/2 96/3/2 100/3/2
f 93/5/2 94/5/2 101/5/2
f 94/6/2 99/6/2 102/6/2
f 101/5/2 94/5/2 102/5/2
f 99/6/2 100/6/2 102/6/2
f 102/6/2 100/6/2 103/6/2
f 100/6/2 97/6/2 104/6/2
f 103/6/2 100/6/2 104/6/2
f 97/5/2 98/5/2 105/5/2
f 104/6/2 97/6/2 105/6/2
f 105/5/2 98/5/2 106/5/2
f 101/6/2 102/6/2 107/6/2
f 102/8/2 103/8/2 108/8/2
f 107/6/2 102/6/2 108/6/2
f 103/3/2 104/3/2 109/3/2
f 108/8/2 103/8/2 109/8/2
f 104/8/2 105/8/2 110/8/2
f 109/3/2 104/3/2 110/3/2
f 105/6/2 106/6/2 111/6/2
f 110/8/2 105/8/2 111/8/2
f 111/6/2 106/6/2 112/6/2
f 117/12/3 114/12/3 113/12/3
f 118/5/3 115/5/3 114/5/3
f 118/12/3 114/12/3 117/12/3
f 119/5/3 115/5/3 118/5/3
f 120/3/3 116/3/3 115/3/3
f 120/5/3 115/5/3 119/5/3
f 121/3/3 119/3/3 118/3/3
f 121/6/3 118/6/3 117/6/3
f 122/6/3 120/6/3 119/6/3
f 122/3/3 119/3/3 121/3/3
f 123/6/3 121/6/3 117/6/3
f 123/6/3 122/6/3 121/6/3
f 124/6/3 122/6/3 123/6/3
f 125/6/3 120/6/3 122/6/3
f 125/6/3 122/6/3 124/6/3
f 126/5/3 124/5/3 123/5/3
f 126/6/3 123/6/3 117/6/3
f 127/12/3 125/12/3 124/12/3
f 127/5/3 124/5/3 126/5/3
f 128/6/3 120/6/3 125/6/3
f 128/12/3 125/12/3 127/12/3
f 129/6/3 127/6/3 126/6/3
f 129/6/3 126/6/3 117/6/3
f 129/6/3 128/6/3 127/6/3
f 130/6/3 128/6/3 129/6/3
f 131/6/3 120/6/3 128/6/3
f 131/6/3 128/6/3 130/6/3
f 132/5/3 130/5/3 129/5/3
f 132/6/3 129/6/3 117/6/3
f 133/12/3 131/12/3 130/12/3
f 133/5/3 130/5/3 132/5/3
f 134/6/3 120/6/3 131/6/3
f 134/12/3 131/12/3 133/12/3
f 135/6/3 133/6/3 132/6/3
f 135/6/3 132/6/3 117/6/3
f 135/6/3 134/6/3 133/6/3
f 136/6/3 134/6/3 135/6/3
f 137/6/3 120/6/3 134/6/3
f 137/6/3 134/6/3 136/6/3
f 138/5/3 136/5/3 135/5/3
f 138/6/3 135/6/3 117/6/3
f 139/12/3 137/12/3 136/12/3
f 139/5/3 136/5/3 138/5/3
f 140/6/3 120/6/3 137/6/3
f 140/12/3 137/12/3 139/12/3
f 141/6/3 139/6/3 138/6/3
f 141/6/3 138/6/3 117/6/3
f 141/6/3 140/6/3 139/6/3
f 142/6/3 120/6/3 140/6/3
f 142/6/3 140/6/3 141/6/3
f 143/3/3 142/3/3 141/3/3
f 144/6/3 120/6/3 142/6/3
f 144/3/3 142/3/3 143/3/3
f 145/3/3 143/3/3 141/3/3
f 145/12/3 144/12/3 143/12/3
f 146/6/3 120/6/3 144/6/3
f 146/12/3 144/12/3 145/12/3
f 147/6/3 141/6/3 117/6/3
f 147/3/3 145/3/3 141/3/3
f 147/3/3 146/3/3 145/3/3
f 148/6/3 120/6/3 146/6/3
f 148/3/3 146/3/3 147/3/3
f 149/6/3 147/6/3 117/6/3
f 149/6/3 148/6/3 147/6/3
f 150/6/3 120/6/3 148/6/3
f 150/6/3 148/6/3 149/6/3
f 151/12/3 117/12/3 113/12/3
f 151/6/3 149/6/3 117/6/3
f 152/3/3 150/3/3 149/3/3
f 152/6/3 149/6/3 151/6/3
f 153/6/3 120/6/3 150/6/3
f 153/3/3 150/3/3 152/3/3
f 154/3/3 116/3/3 120/3/3
f 154/6/3 120/6/3 153/6/3
f 155/3/3 116/3/3 154/3/3
f 156/12/3 152/12/3 151/12/3
f 156/12/3 151/12/3 113/12/3
f 157/5/3 153/5/3 152/5/3
f 157/12/3 152/12/3 156/12/3
f 157/5/3 154/5/3 153/5/3
f 158/6/3 155/6/3 154/6/3
f 158/5/3 154/5/3 157/5/3
f 159/6/3 155/6/3 158/6/3
f 163/4/3 161/4/3 160/4/3
f 164/12/3 162/12/3 161/12/3
f 164/4/3 161/4/3 163/4/3
f 165/12/3 164/12/3 163/12/3
f 166/12/3 162/12/3 164/12/3
f 166/12/3 164/12/3 165/12/3
f 167/12/3 162/12/3 166/12/3
f 168/12/3 165/12/3 163/12/3
f 168/6/3 166/6/3 165/6/3
f 169/5/3 167/5/3 166/5/3
f 169/6/3 166/6/3 168/6/3
f 170/5/3 167/5/3 169/5/3
f 171/12/3 168/12/3 163/12/3
f 171/12/3 169/12/3 168/12/3
f 171/12/3 170/12/3 169/12/3
f 172/12/3 170/12/3 171/12/3
f 173/12/3 170/12/3 172/12/3
f 174/12/3 170/12/3 173/12/3
f 175/12/3 171/12/3 163/12/3
f 175/9/3 172/9/3 171/9/3
f 176/5/3 173/5/3 172/5/3
f 176/9/3 172/9/3 175/9/3
f 177/9/3 174/9/3 173/9/3
f 177/5/3 173/5/3 176/5/3
f 178/9/3 174/9/3 177/9/3
f 179/12/3 176/12/3 175/12/3
f 179/5/3 177/5/3 176/5/3
f 180/12/3 178/12/3 177/12/3
f 180/5/3 177/5/3 179/5/3
f 181/12/3 175/12/3 163/12/3
f 181/12/3 179/12/3 175/12/3
f 181/12/3 180/12/3 179/12/3
f 182/12/3 178/12/3 180/12/3
f 182/12/3 180/12/3 181/12/3
f 183/12/3 178/12/3 182/12/3
f 184/6/3 182/6/3 181/6/3
f 185/5/3 183/5/3 182/5/3
f 185/6/3 182/6/3 184/6/3
f 186/5/3 185/5/3 184/5/3
f 186/5/3 183/5/3 185/5/3
f 187/5/3 183/5/3 186/5/3
f 188/5/3 186/5/3 184/5/3
f 188/1/3 187/1/3 186/1/3
f 189/1/3 187/1/3 188/1/3
f 190/5/3 188/5/3 184/5/3
f 190/2/3 189/2/3 188/2/3
f 191/2/3 189/2/3 190/2/3
f 192/6/3 184/6/3 181/6/3
f 192/5/3 190/5/3 184/5/3
f 192/5/3 191/5/3 190/5/3
f 193/5/3 191/5/3 192/5/3
f 194/12/3 181/12/3 163/12/3
f 194/6/3 192/6/3 181/6/3
f 194/6/3 193/6/3 192/6/3
f 195/5/3 191/5/3 193/5/3
f 195/6/3 193/6/3 194/6/3
f 196/5/3 191/5/3 195/5/3
f 197/4/3 163/4/3 160/4/3
f 197/12/3 194/12/3 163/12/3
f 197/12/3 196/12/3 195/12/3
f 197/12/3 195/12/3 194/12/3
f 198/12/3 196/12/3 197/12/3
f 199/4/3 197/4/3 160/4/3
f 199/4/3 198/4/3 197/4/3
f 200/12/3 196/12/3 198/12/3
f 200/4/3 198/4/3 199/4/3
f 201/12/3 196/12/3 200/12/3
f 206/6/3 203/6/3 202/6/3
f 208/6/3 206/6/3 205/6/3
f 209/6/3 208/6/3 207/6/3
f 210/6/3 206/6/3 208/6/3
f 210/6/3 208/6/3 209/6/3
f 211/3/3 204/3/3 203/3/3
f 211/6/3 206/6/3 210/6/3
f 211/6/3 203/6/3 206/6/3
f 212/3/3 204/3/3 211/3/3
f 216/12/3 214/12/3 213/12/3
f 217/11/3 215/11/3 214/11/3
f 217/12/3 214/12/3 216/12/3
f 218/11/3 215/11/3 217/11/3
f 219/12/4 220/12/4 222/12/4
f 220/8/4 221/8/4 223/8/4
f 222/12/4 220/12/4 223/12/4
f 223/8/4 221/8/4 224/8/4
f 225/6/4 226/6/4 229/6/4
f 228/6/4 229/6/4 231/6/4
f 230/6/4 231/6/4 232/6/4
f 231/6/4 229/6/4 233/6/4
f 232/6/4 231/6/4 233/6/4
f 226/3/4 227/3/4 234/3/4
f 233/6/4 229/6/4 234/6/4
f 229/6/4 226/6/4 234/6/4
f 234/3/4 227/3/4 235/3/4
f 236/4/4 237/4/4 239/4/4
f 237/12/4 238/12/4 240/12/4
f 239/4/4 237/4/4 240/4/4
f 239/12/4 240/12/4 241/12/4
f 240/12/4 238/12/4 242/12/4
f 241/12/4 240/12/4 242/12/4
f 242/12/4 238/12/4 243/12/4
f 239/12/4 241/12/4 244/12/4
f 241/6/4 242/6/4 244/6/4
f 242/5/4 243/5/4 245/5/4
f 244/6/4 242/6/4 245/6/4
f 245/5/4 243/5/4 246/5/4
f 239/12/4 244/12/4 247/12/4
f 244/12/4 245/12/4 247/12/4
f 245/12/4 246/12/4 247/12/4
f 247/12/4 246/12/4 248/12/4
f 248/12/4 246/12/4 249/12/4
f 249/12/4 246/12/4 250/12/4
f 239/12/4 247/12/4 251/12/4
f 247/9/4 248/9/4 251/9/4
f 248/5/4 249/5/4 252/5/4
f 251/9/4 248/9/4 252/9/4
f 249/9/4 250/9/4 253/9/4
f 252/5/4 249/5/4 253/5/4
f 253/9/4 250/9/4 254/9/4
f 251/12/4 252/12/4 255/12/4
f 252/5/4 253/5/4 255/5/4
f 253/12/4 254/12/4 256/12/4
f 255/5/4 253/5/4 256/5/4
f 239/12/4 251/12/4 257/12/4
f 251/12/4 255/12/4 257/12/4
f 255/12/4 256/12/4 257/12/4
f 256/12/4 254/12/4 258/12/4
f 257/12/4 256/12/4 258/12/4
f 258/12/4 254/12/4 259/12/4
f 257/6/4 258/6/4 260/6/4
f 258/5/4 259/5/4 261/5/4
f 260/6/4 258/6/4 261/6/4
f 260/5/4 261/5/4 262/5/4
f 261/5/4 259/5/4 262/5/4
f 262/5/4 259/5/4 263/5/4
f 260/5/4 262/5/4 264/5/4
f 262/1/4 263/1/4 264/1/4
f 264/1/4 263/1/4 265/1/4
f 260/5/4 264/5/4 266/5/4
f 264/2/4 265/2/4 266/2/4
f 266/2/4 265/2/4 267/2/4
f 257/6/4 260/6/4 268/6/4
f 260/5/4 266/5/4 268/5/4
f 266/5/4 267/5/4 268/5/4
f 268/5/4 267/5/4 269/5/4
f 239/12/4 257/12/4 270/12/4
f 257/6/4 268/6/4 270/6/4
f 268/6/4 269/6/4 270/6/4
f 269/5/4 267/5/4 271/5/4
f 270/6/4 269/6/4 271/6/4
f 271/5/4 267/5/4 272/5/4
f 236/4/4 239/4/4 273/4/4
f 239/12/4 270/12/4 273/12/4
f 271/12/4 272/12/4 273/12/4
f 270/12/4 271/12/4 273/12/4
f 273/12/4 272/12/4 274/12/4
f 236/4/4 273/4/4 275/4/4
f 273/4/4 274/4/4 275/4/4
f 274/12/4 272/12/4 276/12/4
f 275/4/4 274/4/4 276/4/4
f 276/12/4 272/12/4 277/12/4
f 278/12/4 279/12/4 282/12/4
f 279/5/4 280/5/4 283/5/4
f 282/12/4 279/12/4 283/12/4
f 283/5/4 280/5/4 284/5/4
f 280/3/4 281/3/4 285/3/4
f 284/5/4 280/5/4 285/5/4
f 283/3/4 284/3/4 286/3/4
f 282/6/4 283/6/4 286/6/4
f 284/6/4 285/6/4 287/6/4
f 286/3/4 284/3/4 287/3/4
f 282/6/4 286/6/4 288/6/4
f 286/6/4 287/6/4 288/6/4
f 288/6/4 287/6/4 289/6/4
f 287/6/4 285/6/4 290/6/4
f 289/6/4 287/6/4 290/6/4
f 288/5/4 289/5/4 291/5/4
f 282/6/4 288/6/4 291/6/4
f 289/12/4 290/12/4 292/12/4
f 291/5/4 289/5/4 292/5/4
f 290/6/4 285/6/4 293/6/4
f 292/12/4 290/12/4 293/12/4
f 291/6/4 292/6/4 294/6/4
f 282/6/4 291/6/4 294/6/4
f 292/6/4 293/6/4 294/6/4
f 294/6/4 293/6/4 295/6/4
f 293/6/4 285/6/4 296/6/4
f 295/6/4 293/6/4 296/6/4
f 294/5/4 295/5/4 297/5/4
f 282/6/4 294/6/4 297/6/4
f 295/12/4 296/12/4 298/12/4
f 297/5/4 295/5/4 298/5/4
f 296/6/4 285/6/4 299/6/4
f 298/12/4 296/12/4 299/12/4
f 297/6/4 298/6/4 300/6/4
f 282/6/4 297/6/4 300/6/4
f 298/6/4 299/6/4 300/6/4
f 300/6/4 299/6/4 301/6/4
f 299/6/4 285/6/4 302/6/4
f 301/6/4 299/6/4 302/6/4
f 300/5/4 301/5/4 303/5/4
f 282/6/4 300/6/4 303/6/4
f 301/12/4 302/12/4 304/12/4
f 303/5/4 301/5/4 304/5/4
f 302/6/4 285/6/4 305/6/4
f 304/12/4 302/12/4 305/12/4
f 303/6/4 304/6/4 306/6/4
f 282/6/4 303/6/4 306/6/4
f 304/6/4 305/6/4 306/6/4
f 305/6/4 285/6/4 307/6/4
f 306/6/4 305/6/4 307/6/4
f 306/3/4 307/3/4 308/3/4
f 307/6/4 285/6/4 309/6/4
f 308/3/4 307/3/4 309/3/4
f 306/3/4 308/3/4 310/3/4
f 308/12/4 309/12/4 310/12/4
f 309/6/4 285/6/4 311/6/4
f 310/12/4 309/12/4 311/12/4
f 282/6/4 306/6/4 312/6/4
f 306/3/4 310/3/4 312/3/4
f 310/3/4 311/3/4 312/3/4
f 311/6/4 285/6/4 313/6/4
f 312/3/4 311/3/4 313/3/4
f 282/6/4 312/6/4 314/6/4
f 312/6/4 313/6/4 314/6/4
f 313/6/4 285/6/4 315/6/4
f 314/6/4 313/6/4 315/6/4
f 278/12/4 282/12/4 316/12/4
f 282/6/4 314/6/4 316/6/4
f 314/3/4 315/3/4 317/3/4
f 316/6/4 314/6/4 317/6/4
f 315/6/4 285/6/4 318/6/4
f 317/3/4 315/3/4 318/3/4
f 285/3/4 281/3/4 319/3/4
f 318/6/4 285/6/4 319/6/4
f 319/3/4 281/3/4 320/3/4
f 316/12/4 317/12/4 321/12/4
f 278/12/4 316/12/4 321/12/4
f 317/5/4 318/5/4 322/5/4
f 321/12/4 317/12/4 322/12/4
f 318/5/4 319/5/4 322/5/4
f 319/6/4 320/6/4 323/6/4
f 322/5/4 319/5/4 323/5/4
f 323/6/4 320/6/4 324/6/4
f 327/4/5 326/4/5 325/4/5
f 328/4/5 326/4/5 327/4/5
f 331/6/5 330/6/5 329/6/5
f 332/6/5 330/6/5 331/6/5
f 335/12/5 334/12/5 333/12/5
f 336/12/5 334/12/5 335/12/5
f 337/12/5 334/12/5 336/12/5
f 338/12/5 334/12/5 337/12/5
f 339/12/5 334/12/5 338/12/5
f 340/12/5 334/12/5 339/12/5
f 341/12/5 334/12/5 340/12/5
f 342/12/5 334/12/5 341/12/5
f 343/12/5 334/12/5 342/12/5
f 344/12/5 334/12/5 343/12/5
f 345/12/5 334/12/5 344/12/5
f 346/12/5 334/12/5 345/12/5
f 347/12/5 334/12/5 346/12/5
f 358/12/5 334/12/5 347/12/5
f 359/12/5 357/12/5 356/12/5
f 359/12/5 358/12/5 357/12/5
f 359/12/5 349/12/5 348/12/5
f 359/12/5 350/12/5 349/12/5
f 359/12/5 356/12/5 355/12/5
f 359/12/5 355/12/5 354/12/5
f 359/12/5 354/12/5 353/12/5
f 359/12/5 353/12/5 352/12/5
f 359/12/5 352/12/5 351/12/5
f 359/12/5 351/12/5 350/12/5
f 360/12/5 334/12/5 358/12/5
f 360/12/5 358/12/5 359/12/5
f 363/6/5 362/6/5 361/6/5
f 364/6/5 362/6/5 363/6/5
f 367/6/5 366/6/5 365/6/5
f 368/6/5 366/6/5 367/6/5
f 369/6/6 370/6/6 371/6/6
f 371/6/6 370/6/6 372/6/6
f 371/3/6 372/3/6 373/3/6
f 373/3/6 372/3/6 374/3/6
f 373/6/6 374/6/6 375/6/6
f 375/6/6 374/6/6 376/6/6
f 375/3/6 376/3/6 377/3/6
f 377/3/6 376/3/6 378/3/6
f 379/3/6 380/3/6 382/3/6
f 380/6/6 381/6/6 383/6/6
f 382/3/6 380/3/6 383/3/6
f 383/6/6 381/6/6 384/6/6
f 382/8/6 383/8/6 385/8/6
f 383/8/6 384/8/6 385/8/6
f 385/8/6 384/8/6 386/8/6
f 386/8/6 384/8/6 387/8/6
f 387/8/6 384/8/6 388/8/6
f 388/8/6 384/8/6 389/8/6
f 389/8/6 384/8/6 390/8/6
f 390/8/6 384/8/6 391/8/6
f 391/8/6 384/8/6 392/8/6
f 392/8/6 384/8/6 393/8/6
f 393/8/6 384/8/6 394/8/6
f 385/3/6 386/3/6 396/3/6
f 395/3/6 396/3/6 397/3/6
f 396/3/6 386/3/6 398/3/6
f 397/3/6 396/3/6 398/3/6
f 395/3/6 397/3/6 399/3/6
f 397/7/6 398/7/6 399/7/6
f 398/3/6 386/3/6 400/3/6
f 399/7/6 398/7/6 400/7/6
f 395/3/6 399/3/6 401/3/6
f 399/12/6 400/12/6 401/12/6
f 400/3/6 386/3/6 402/3/6
f 401/12/6 400/12/6 402/12/6
f 395/3/6 401/3/6 403/3/6
f 401/7/6 402/7/6 403/7/6
f 402/3/6 386/3/6 404/3/6
f 403/7/6 402/7/6 404/7/6
f 395/3/6 403/3/6 405/3/6
f 403/3/6 404/3/6 405/3/6
f 404/3/6 386/3/6 406/3/6
f 405/3/6 404/3/6 406/3/6
f 386/11/6 387/11/6 407/11/6
f 406/3/6 386/3/6 407/3/6
f 407/11/6 387/11/6 408/11/6
f 388/11/6 389/11/6 409/11/6
f 389/8/6 390/8/6 410/8/6
f 409/11/6 389/11/6 410/11/6
f 390/11/6 391/11/6 411/11/6
f 410/8/6 390/8/6 411/8/6
f 391/7/6 392/7/6 412/7/6
f 411/11/6 391/11/6 412/11/6
f 392/11/6 393/11/6 413/11/6
f 412/7/6 392/7/6 413/7/6
f 393/3/6 394/3/6 414/3/6
f 413/11/6 393/11/6 414/11/6
f 406/3/6 407/3/6 415/3/6
f 407/10/6 408/10/6 416/10/6
f 415/3/6 407/3/6 416/3/6
f 408/11/6 409/11/6 417/11/6
f 416/10/6 408/10/6 417/10/6
f 409/10/6 410/10/6 418/10/6
f 417/11/6 409/11/6 418/11/6
f 410/8/6 411/8/6 419/8/6
f 418/10/6 410/10/6 419/10/6
f 411/10/6 412/10/6 420/10/6
f 419/8/6 411/8/6 420/8/6
f 412/11/6 413/11/6 421/11/6
f 420/10/6 412/10/6 421/10/6
f 413/10/6 414/10/6 422/10/6
f 421/11/6 413/11/6 422/11/6
f 414/3/6 394/3/6 423/3/6
f 422/10/6 414/10/6 423/10/6
f 423/3/6 394/3/6 424/3/6
f 419/8/6 420/8/6 425/8/6
f 421/8/6 422/8/6 425/8/6
f 423/8/6 424/8/6 425/8/6
f 422/8/6 423/8/6 425/8/6
f 415/8/6 416/8/6 425/8/6
f 420/8/6 421/8/6 425/8/6
f 416/8/6 417/8/6 425/8/6
f 417/8/6 418/8/6 425/8/6
f 418/8/6 419/8/6 425/8/6
f 425/8/6 424/8/6 426/8/6
f 426/8/6 424/8/6 427/8/6
f 425/3/6 426/3/6 428/3/6
f 426/6/6 427/6/6 429/6/6
f 428/3/6 426/3/6 429/3/6
f 429/6/6 427/6/6 430/6/6
